<mxfile host="app.diagrams.net" modified="2023-01-14T17:56:10.151Z" agent="5.0 (Windows NT 10.0; Win64; x64) AppleWebKit/537.36 (KHTML, like Gecko) Chrome/109.0.0.0 Safari/537.36" etag="p7y71-HWhjYlNUP8Oglm" version="20.8.5" type="github">
  <diagram id="F-IUvrx85NzoD5_RwqBv" name="Page-1">
    <mxGraphModel dx="2074" dy="406" grid="1" gridSize="10" guides="1" tooltips="1" connect="1" arrows="1" fold="1" page="0" pageScale="1" pageWidth="827" pageHeight="1169" math="0" shadow="0">
      <root>
        <mxCell id="0" />
        <mxCell id="1" parent="0" />
        <mxCell id="84IIdlpKc7K4JWj6J7rB-1" value="&lt;div style=&quot;font-size: 30px;&quot;&gt;&lt;font style=&quot;font-size: 30px;&quot;&gt;思&lt;/font&gt;&lt;/div&gt;&lt;div style=&quot;font-size: 30px;&quot;&gt;sī&lt;/div&gt;" style="ellipse;whiteSpace=wrap;html=1;aspect=fixed;" vertex="1" parent="1">
          <mxGeometry x="430" y="590" width="80" height="80" as="geometry" />
        </mxCell>
        <mxCell id="84IIdlpKc7K4JWj6J7rB-5" value="李&lt;br&gt;li" style="ellipse;whiteSpace=wrap;html=1;aspect=fixed;rounded=0;fontFamily=Helvetica;fontSize=30;fontColor=default;fillColor=none;gradientColor=none;" vertex="1" parent="1">
          <mxGeometry x="780" y="1190" width="80" height="80" as="geometry" />
        </mxCell>
        <mxCell id="84IIdlpKc7K4JWj6J7rB-6" value="迷&lt;br&gt;mí" style="ellipse;whiteSpace=wrap;html=1;aspect=fixed;rounded=0;fontFamily=Helvetica;fontSize=30;fontColor=default;fillColor=none;gradientColor=none;" vertex="1" parent="1">
          <mxGeometry x="800" y="680" width="80" height="80" as="geometry" />
        </mxCell>
        <mxCell id="84IIdlpKc7K4JWj6J7rB-11" style="edgeStyle=orthogonalEdgeStyle;rounded=0;orthogonalLoop=1;jettySize=auto;html=1;fontFamily=Helvetica;fontSize=30;fontColor=default;" edge="1" parent="1" source="84IIdlpKc7K4JWj6J7rB-7" target="84IIdlpKc7K4JWj6J7rB-8">
          <mxGeometry relative="1" as="geometry" />
        </mxCell>
        <mxCell id="84IIdlpKc7K4JWj6J7rB-40" style="edgeStyle=none;rounded=0;orthogonalLoop=1;jettySize=auto;html=1;fontFamily=Helvetica;fontSize=30;fontColor=default;" edge="1" parent="1" source="84IIdlpKc7K4JWj6J7rB-7" target="84IIdlpKc7K4JWj6J7rB-39">
          <mxGeometry relative="1" as="geometry" />
        </mxCell>
        <mxCell id="84IIdlpKc7K4JWj6J7rB-7" value="天 tian" style="ellipse;whiteSpace=wrap;html=1;aspect=fixed;rounded=0;fontFamily=Helvetica;fontSize=30;fontColor=default;fillColor=none;gradientColor=none;" vertex="1" parent="1">
          <mxGeometry x="1040" y="920" width="80" height="80" as="geometry" />
        </mxCell>
        <mxCell id="84IIdlpKc7K4JWj6J7rB-10" style="edgeStyle=orthogonalEdgeStyle;rounded=0;orthogonalLoop=1;jettySize=auto;html=1;fontFamily=Helvetica;fontSize=30;fontColor=default;" edge="1" parent="1" source="84IIdlpKc7K4JWj6J7rB-8" target="84IIdlpKc7K4JWj6J7rB-9">
          <mxGeometry relative="1" as="geometry" />
        </mxCell>
        <mxCell id="84IIdlpKc7K4JWj6J7rB-8" value="末 mò" style="ellipse;whiteSpace=wrap;html=1;aspect=fixed;rounded=0;fontFamily=Helvetica;fontSize=30;fontColor=default;fillColor=none;gradientColor=none;" vertex="1" parent="1">
          <mxGeometry x="1040" y="800" width="80" height="80" as="geometry" />
        </mxCell>
        <mxCell id="84IIdlpKc7K4JWj6J7rB-9" value="来&lt;br&gt;lái" style="ellipse;whiteSpace=wrap;html=1;aspect=fixed;rounded=0;fontFamily=Helvetica;fontSize=30;fontColor=default;fillColor=none;gradientColor=none;" vertex="1" parent="1">
          <mxGeometry x="1040" y="680" width="80" height="80" as="geometry" />
        </mxCell>
        <mxCell id="84IIdlpKc7K4JWj6J7rB-13" style="edgeStyle=orthogonalEdgeStyle;rounded=0;orthogonalLoop=1;jettySize=auto;html=1;fontFamily=Helvetica;fontSize=30;fontColor=default;" edge="1" parent="1" source="84IIdlpKc7K4JWj6J7rB-12" target="84IIdlpKc7K4JWj6J7rB-9">
          <mxGeometry relative="1" as="geometry" />
        </mxCell>
        <mxCell id="84IIdlpKc7K4JWj6J7rB-14" style="edgeStyle=orthogonalEdgeStyle;rounded=0;orthogonalLoop=1;jettySize=auto;html=1;fontFamily=Helvetica;fontSize=30;fontColor=default;" edge="1" parent="1" source="84IIdlpKc7K4JWj6J7rB-12" target="84IIdlpKc7K4JWj6J7rB-6">
          <mxGeometry relative="1" as="geometry" />
        </mxCell>
        <mxCell id="84IIdlpKc7K4JWj6J7rB-12" value="米&lt;br&gt;mǐ" style="ellipse;whiteSpace=wrap;html=1;aspect=fixed;rounded=0;fontFamily=Helvetica;fontSize=30;fontColor=default;fillColor=none;gradientColor=none;" vertex="1" parent="1">
          <mxGeometry x="920" y="680" width="80" height="80" as="geometry" />
        </mxCell>
        <mxCell id="84IIdlpKc7K4JWj6J7rB-15" value="&lt;div&gt;篮&lt;/div&gt;&lt;div&gt;lán&lt;/div&gt;" style="ellipse;whiteSpace=wrap;html=1;rounded=0;fontFamily=Helvetica;fontSize=30;fontColor=default;fillColor=none;gradientColor=none;" vertex="1" parent="1">
          <mxGeometry x="390" y="900" width="80" height="80" as="geometry" />
        </mxCell>
        <mxCell id="84IIdlpKc7K4JWj6J7rB-16" value="&lt;div&gt;急&lt;/div&gt;&lt;div&gt;jí&lt;/div&gt;" style="ellipse;whiteSpace=wrap;html=1;rounded=0;fontFamily=Helvetica;fontSize=30;fontColor=default;fillColor=none;gradientColor=none;" vertex="1" parent="1">
          <mxGeometry x="90" y="1100" width="80" height="80" as="geometry" />
        </mxCell>
        <mxCell id="84IIdlpKc7K4JWj6J7rB-21" style="edgeStyle=orthogonalEdgeStyle;rounded=0;orthogonalLoop=1;jettySize=auto;html=1;fontFamily=Helvetica;fontSize=30;fontColor=default;" edge="1" parent="1" source="84IIdlpKc7K4JWj6J7rB-18" target="84IIdlpKc7K4JWj6J7rB-20">
          <mxGeometry relative="1" as="geometry" />
        </mxCell>
        <mxCell id="84IIdlpKc7K4JWj6J7rB-18" value="&lt;div&gt;哥&lt;/div&gt;&lt;div&gt;gē&lt;/div&gt;" style="ellipse;whiteSpace=wrap;html=1;rounded=0;fontFamily=Helvetica;fontSize=30;fontColor=default;fillColor=none;gradientColor=none;" vertex="1" parent="1">
          <mxGeometry x="1160" y="1280" width="80" height="80" as="geometry" />
        </mxCell>
        <mxCell id="84IIdlpKc7K4JWj6J7rB-20" value="歌&amp;nbsp; gē" style="ellipse;whiteSpace=wrap;html=1;rounded=0;fontFamily=Helvetica;fontSize=30;fontColor=default;fillColor=none;gradientColor=none;" vertex="1" parent="1">
          <mxGeometry x="1280" y="1280" width="80" height="80" as="geometry" />
        </mxCell>
        <mxCell id="84IIdlpKc7K4JWj6J7rB-24" style="rounded=0;orthogonalLoop=1;jettySize=auto;html=1;fontFamily=Helvetica;fontSize=30;fontColor=default;" edge="1" parent="1" source="84IIdlpKc7K4JWj6J7rB-23" target="84IIdlpKc7K4JWj6J7rB-18">
          <mxGeometry relative="1" as="geometry" />
        </mxCell>
        <mxCell id="84IIdlpKc7K4JWj6J7rB-26" style="edgeStyle=orthogonalEdgeStyle;rounded=0;orthogonalLoop=1;jettySize=auto;html=1;fontFamily=Helvetica;fontSize=30;fontColor=default;" edge="1" parent="1" source="84IIdlpKc7K4JWj6J7rB-23" target="84IIdlpKc7K4JWj6J7rB-25">
          <mxGeometry relative="1" as="geometry" />
        </mxCell>
        <mxCell id="84IIdlpKc7K4JWj6J7rB-28" style="rounded=0;orthogonalLoop=1;jettySize=auto;html=1;fontFamily=Helvetica;fontSize=30;fontColor=default;" edge="1" parent="1" source="84IIdlpKc7K4JWj6J7rB-23" target="84IIdlpKc7K4JWj6J7rB-27">
          <mxGeometry relative="1" as="geometry" />
        </mxCell>
        <mxCell id="84IIdlpKc7K4JWj6J7rB-30" style="edgeStyle=none;rounded=0;orthogonalLoop=1;jettySize=auto;html=1;fontFamily=Helvetica;fontSize=30;fontColor=default;" edge="1" parent="1" source="84IIdlpKc7K4JWj6J7rB-23" target="84IIdlpKc7K4JWj6J7rB-29">
          <mxGeometry relative="1" as="geometry" />
        </mxCell>
        <mxCell id="84IIdlpKc7K4JWj6J7rB-23" value="可&lt;br&gt;kě" style="ellipse;whiteSpace=wrap;html=1;rounded=0;fontFamily=Helvetica;fontSize=30;fontColor=default;fillColor=none;gradientColor=none;" vertex="1" parent="1">
          <mxGeometry x="1040" y="1400" width="80" height="80" as="geometry" />
        </mxCell>
        <mxCell id="84IIdlpKc7K4JWj6J7rB-25" value="河&lt;br&gt;hé" style="ellipse;whiteSpace=wrap;html=1;rounded=0;fontFamily=Helvetica;fontSize=30;fontColor=default;fillColor=none;gradientColor=none;" vertex="1" parent="1">
          <mxGeometry x="920" y="1400" width="80" height="80" as="geometry" />
        </mxCell>
        <mxCell id="84IIdlpKc7K4JWj6J7rB-27" value="司&lt;br&gt;si" style="ellipse;whiteSpace=wrap;html=1;rounded=0;fontFamily=Helvetica;fontSize=30;fontColor=default;fillColor=none;gradientColor=none;" vertex="1" parent="1">
          <mxGeometry x="920" y="1280" width="80" height="80" as="geometry" />
        </mxCell>
        <mxCell id="84IIdlpKc7K4JWj6J7rB-29" value="奇&lt;br&gt;qí" style="ellipse;whiteSpace=wrap;html=1;rounded=0;fontFamily=Helvetica;fontSize=30;fontColor=default;fillColor=none;gradientColor=none;" vertex="1" parent="1">
          <mxGeometry x="1040" y="1280" width="80" height="80" as="geometry" />
        </mxCell>
        <mxCell id="84IIdlpKc7K4JWj6J7rB-32" style="edgeStyle=none;rounded=0;orthogonalLoop=1;jettySize=auto;html=1;fontFamily=Helvetica;fontSize=30;fontColor=default;" edge="1" parent="1" source="84IIdlpKc7K4JWj6J7rB-31" target="84IIdlpKc7K4JWj6J7rB-29">
          <mxGeometry relative="1" as="geometry" />
        </mxCell>
        <mxCell id="84IIdlpKc7K4JWj6J7rB-33" style="edgeStyle=none;rounded=0;orthogonalLoop=1;jettySize=auto;html=1;fontFamily=Helvetica;fontSize=30;fontColor=default;" edge="1" parent="1" source="84IIdlpKc7K4JWj6J7rB-31" target="84IIdlpKc7K4JWj6J7rB-5">
          <mxGeometry relative="1" as="geometry" />
        </mxCell>
        <mxCell id="84IIdlpKc7K4JWj6J7rB-35" style="edgeStyle=none;rounded=0;orthogonalLoop=1;jettySize=auto;html=1;fontFamily=Helvetica;fontSize=30;fontColor=default;" edge="1" parent="1" source="84IIdlpKc7K4JWj6J7rB-31" target="84IIdlpKc7K4JWj6J7rB-34">
          <mxGeometry relative="1" as="geometry" />
        </mxCell>
        <mxCell id="84IIdlpKc7K4JWj6J7rB-36" style="edgeStyle=none;rounded=0;orthogonalLoop=1;jettySize=auto;html=1;fontFamily=Helvetica;fontSize=30;fontColor=default;" edge="1" parent="1" source="84IIdlpKc7K4JWj6J7rB-31" target="84IIdlpKc7K4JWj6J7rB-7">
          <mxGeometry relative="1" as="geometry" />
        </mxCell>
        <mxCell id="84IIdlpKc7K4JWj6J7rB-31" value="大&lt;br&gt;dà" style="ellipse;whiteSpace=wrap;html=1;rounded=0;fontFamily=Helvetica;fontSize=30;fontColor=default;fillColor=none;gradientColor=none;" vertex="1" parent="1">
          <mxGeometry x="1040" y="1040" width="80" height="80" as="geometry" />
        </mxCell>
        <mxCell id="84IIdlpKc7K4JWj6J7rB-34" value="夫&lt;br&gt;fū" style="ellipse;whiteSpace=wrap;html=1;rounded=0;fontFamily=Helvetica;fontSize=30;fontColor=default;fillColor=none;gradientColor=none;" vertex="1" parent="1">
          <mxGeometry x="1160" y="1040" width="80" height="80" as="geometry" />
        </mxCell>
        <mxCell id="84IIdlpKc7K4JWj6J7rB-38" style="edgeStyle=none;rounded=0;orthogonalLoop=1;jettySize=auto;html=1;fontFamily=Helvetica;fontSize=30;fontColor=default;" edge="1" parent="1" source="84IIdlpKc7K4JWj6J7rB-37" target="84IIdlpKc7K4JWj6J7rB-12">
          <mxGeometry relative="1" as="geometry" />
        </mxCell>
        <mxCell id="84IIdlpKc7K4JWj6J7rB-37" value="术&lt;br&gt;shù" style="ellipse;whiteSpace=wrap;html=1;rounded=0;fontFamily=Helvetica;fontSize=30;fontColor=default;fillColor=none;gradientColor=none;" vertex="1" parent="1">
          <mxGeometry x="920" y="800" width="80" height="80" as="geometry" />
        </mxCell>
        <mxCell id="84IIdlpKc7K4JWj6J7rB-39" value="美&lt;br&gt;měi" style="ellipse;whiteSpace=wrap;html=1;rounded=0;fontFamily=Helvetica;fontSize=30;fontColor=default;fillColor=none;gradientColor=none;" vertex="1" parent="1">
          <mxGeometry x="1390" y="790" width="80" height="80" as="geometry" />
        </mxCell>
        <mxCell id="84IIdlpKc7K4JWj6J7rB-42" value="赞&lt;br&gt;zàn" style="ellipse;whiteSpace=wrap;html=1;rounded=0;fontFamily=Helvetica;fontSize=30;fontColor=default;fillColor=none;gradientColor=none;" vertex="1" parent="1">
          <mxGeometry x="340" y="1360" width="80" height="80" as="geometry" />
        </mxCell>
        <mxCell id="84IIdlpKc7K4JWj6J7rB-43" value="告&lt;br&gt;gào" style="ellipse;whiteSpace=wrap;html=1;rounded=0;fontFamily=Helvetica;fontSize=30;fontColor=default;fillColor=none;gradientColor=none;" vertex="1" parent="1">
          <mxGeometry x="570" y="1590" width="80" height="80" as="geometry" />
        </mxCell>
        <mxCell id="84IIdlpKc7K4JWj6J7rB-45" value="&lt;div&gt;室&lt;/div&gt;&lt;div&gt;shì&lt;/div&gt;" style="ellipse;whiteSpace=wrap;html=1;rounded=0;fontFamily=Helvetica;fontSize=30;fontColor=default;fillColor=none;gradientColor=none;" vertex="1" parent="1">
          <mxGeometry x="800" y="1710" width="80" height="80" as="geometry" />
        </mxCell>
      </root>
    </mxGraphModel>
  </diagram>
</mxfile>
